<?xml version="1.0" encoding="utf-8"?>
<!-- Generator: Adobe Illustrator 25.4.1, SVG Export Plug-In . SVG Version: 6.00 Build 0)  -->
<svg version="1.1" id="Layer_1" xmlns="http://www.w3.org/2000/svg" xmlns:xlink="http://www.w3.org/1999/xlink" x="0px" y="0px"
	 viewBox="0 0 45.7 35.2" style="enable-background:new 0 0 45.7 35.2;" xml:space="preserve">
<style type="text/css">
	.st0{fill:none;}
	.st1{fill:#F0D50C;}
	.st2{fill:#FFF04D;}
	.st3{fill:#FFEA00;}
	.st4{fill:#6E6F70;}
	.st5{fill:#0A0A0A;}
</style>
<rect x="-3.3" y="-2.9" class="st0" width="168" height="41.1"/>
<rect x="-3.3" y="-2.9" class="st0" width="52.3" height="41.1"/>
<g transform="translate(3.267 4.667)">
	<path class="st1" d="M42.5,23.6c0,0-7-1-10.6-1.3c-3.5-0.3-7.7-0.4-12.2-0.4S10.9,22,7.4,22.3C3.7,22.6-3.3,24-3.3,24v1.8
		c0,1.6,10.2,2.9,22.9,2.9s22.9-1.3,22.9-2.9L42.5,23.6z"/>
	<path class="st1" d="M12.6-0.3C4.2,2.7-1.4,10.6-1.4,19.5v3c3-0.7,6-1.2,9.1-1.3c0-0.6,0-1.1,0-1.7C7.7,11.6,9.6,4.6,12.6-0.3z"/>
	<path class="st2" d="M40.6,19.5c0-4.9-1.7-9.6-4.8-13.3c1.3,4.3,2,8.8,2,13.3c0,0.8,0,1.6-0.1,2.4c1,0.1,1.9,0.3,2.8,0.6L40.6,19.5
		z"/>
	<path class="st3" d="M40.6,19.5c0-4.9-1.7-9.6-4.8-13.3c1.3,4.3,2,8.8,2,13.3c0,0.8,0,1.6-0.1,2.4c1,0.1,1.9,0.3,2.8,0.6L40.6,19.5
		z"/>
	<path class="st2" d="M35.8,6.1c-5.6-6.8-14.9-9.4-23.2-6.4c-3,4.9-4.9,11.9-4.9,19.7c0,0.6,0,1.2,0,1.7c3.1-0.2,6.7-0.4,10.6-0.4
		c0,0,0.9,0,1.3,0c6.1-0.1,12.1,0.3,18.1,1.1c0-0.8,0.1-1.6,0.1-2.4C37.8,14.9,37.1,10.4,35.8,6.1z"/>
	<g transform="translate(14.537)">
		<path class="st2" d="M13.5,7.5l-1.3-8.3c-0.1-0.6-0.5-1.1-1.1-1.3c-3.9-1.1-8-1.1-11.9,0c-0.6,0.2-1,0.7-1.1,1.3l-1.3,8.3"/>
	</g>
	<path class="st2" d="M19.6,20.5c-0.4,0-0.8,0-1.2,0h0h0c-12,0.1-21.6,1.3-21.6,2.9v2.2c0,0.1,0,0.3,0.1,0.4
		c0.6-0.5,1.3-0.8,2.1-0.9c1.9-0.5,3.8-0.8,5.8-1c1.1-0.1,2.2,0.2,3,1c1.5,1.4,3.5,2.1,5.5,2.1H26c2,0,4-0.8,5.5-2.1l0,0
		c0.8-0.8,1.9-1.1,3-1c1.9,0.2,3.9,0.5,5.8,1c0.7,0.1,1.4,0.4,2,0.9c0,0,0.1,0.1,0.1,0.1c0.1-0.1,0.1-0.2,0.1-0.4v-2.2
		C42.5,21.8,32.2,20.5,19.6,20.5z"/>
	<path class="st4" d="M24.4,13.9l-4.8,3v3.9L24.4,13.9z"/>
	<path class="st5" d="M19.6,20.7v-3.9l-4.8-3L19.6,20.7z"/>
	<path class="st5" d="M14.8,12.1L14.8,12.1l4.8,2.8V4.3L14.8,12.1z"/>
	<path class="st4" d="M24.4,12.1l-4.8-7.8l0,0v5l0,0v5.6L24.4,12.1L24.4,12.1L24.4,12.1z"/>
</g>
</svg>
